<svg width="41" height="41" viewBox="0 0 41 41" fill="none" xmlns="http://www.w3.org/2000/svg">
<path d="M19.7726 15.2594C20.006 15.1706 20.37 15.1828 20.8644 15.2963L24.001 16.0167C24.9453 16.2336 25.5818 16.6057 25.9105 17.1324C26.2392 17.6591 26.3104 18.3286 26.1238 19.1406C25.9373 19.9527 25.5787 20.5353 25.0479 20.8883C24.5223 21.2188 23.787 21.2755 22.8427 21.0586L19.7066 20.3382C19.212 20.2246 18.8815 20.0654 18.7154 19.861C18.5718 19.6618 18.557 19.3141 18.671 18.8179L19.2772 16.1786C19.3964 15.6598 19.5616 15.3534 19.7726 15.2594Z" fill="white"/>
<path fill-rule="evenodd" clip-rule="evenodd" d="M20.5 0.133301C31.5455 0.133301 40.4995 9.0876 40.4996 20.1333C40.4996 31.179 31.5455 40.1333 20.5 40.1333C9.45458 40.1333 0.500488 31.179 0.500488 20.1333C0.500512 9.08761 9.45459 0.13333 20.5 0.133301ZM17.5599 7.73353C16.5258 7.49599 15.6135 7.65461 14.8234 8.20927C14.0558 8.76912 13.5537 9.61548 13.3171 10.7484C13.0753 11.9041 13.1691 12.8873 13.5982 13.6983C14.055 14.492 14.8005 15.0078 15.8347 15.2453L16.4078 15.3768L16.4288 16.0588C15.2029 16.3471 14.0876 17.0287 13.0832 18.104C12.0787 19.1794 11.3019 20.9129 10.7526 23.304L9.65659 28.075C9.38715 29.248 9.49726 30.2114 9.98685 30.965C10.499 31.7239 11.306 32.2299 12.4077 32.483L12.4414 32.491C13.453 32.7233 14.3323 32.6046 15.0792 32.135C15.8487 31.6705 16.368 30.8516 16.6375 29.6786L17.6091 25.4493L22.2631 26.5182C23.6796 26.8436 25.0521 26.8979 26.3802 26.6805C27.7083 26.4632 28.8832 25.8304 29.905 24.7827C30.9268 23.735 31.6811 22.1508 32.1682 20.0304C32.8418 17.0979 32.6146 14.7897 31.4866 13.1057C30.3862 11.4042 28.7006 10.2924 26.4298 9.77076L17.5599 7.73353Z" fill="white"/>
</svg>
