<svg width="279" height="18" viewBox="0 0 279 18" fill="none" xmlns="http://www.w3.org/2000/svg">
<line x1="0.5" y1="8.5" x2="87.5" y2="8.50001" stroke="#EDF1F3" stroke-linecap="round"/>
<path d="M112.775 8.63636C112.775 9.55682 112.609 10.3523 112.277 11.0227C111.944 11.6932 111.488 12.2102 110.909 12.5739C110.329 12.9375 109.667 13.1193 108.923 13.1193C108.179 13.1193 107.517 12.9375 106.937 12.5739C106.358 12.2102 105.902 11.6932 105.569 11.0227C105.237 10.3523 105.071 9.55682 105.071 8.63636C105.071 7.71591 105.237 6.92045 105.569 6.25C105.902 5.57955 106.358 5.0625 106.937 4.69886C107.517 4.33523 108.179 4.15341 108.923 4.15341C109.667 4.15341 110.329 4.33523 110.909 4.69886C111.488 5.0625 111.944 5.57955 112.277 6.25C112.609 6.92045 112.775 7.71591 112.775 8.63636ZM111.752 8.63636C111.752 7.88068 111.626 7.2429 111.373 6.72301C111.123 6.20312 110.784 5.80966 110.355 5.54261C109.929 5.27557 109.451 5.14205 108.923 5.14205C108.395 5.14205 107.916 5.27557 107.487 5.54261C107.061 5.80966 106.721 6.20312 106.468 6.72301C106.218 7.2429 106.093 7.88068 106.093 8.63636C106.093 9.39205 106.218 10.0298 106.468 10.5497C106.721 11.0696 107.061 11.4631 107.487 11.7301C107.916 11.9972 108.395 12.1307 108.923 12.1307C109.451 12.1307 109.929 11.9972 110.355 11.7301C110.784 11.4631 111.123 11.0696 111.373 10.5497C111.626 10.0298 111.752 9.39205 111.752 8.63636ZM114.296 13V6.45455H115.267V7.44318H115.336C115.455 7.11932 115.671 6.85653 115.983 6.65483C116.296 6.45312 116.648 6.35227 117.04 6.35227C117.114 6.35227 117.206 6.35369 117.317 6.35653C117.428 6.35937 117.512 6.36364 117.569 6.36932V7.39205C117.534 7.38352 117.456 7.37074 117.334 7.35369C117.215 7.33381 117.088 7.32386 116.955 7.32386C116.637 7.32386 116.353 7.39062 116.103 7.52415C115.856 7.65483 115.659 7.83665 115.515 8.0696C115.373 8.29972 115.302 8.5625 115.302 8.85795V13H114.296ZM122.901 4.27273V13H121.896V4.27273H122.901ZM127.282 13.1364C126.692 13.1364 126.173 12.9957 125.727 12.7145C125.284 12.4332 124.937 12.0398 124.687 11.5341C124.44 11.0284 124.317 10.4375 124.317 9.76136C124.317 9.07955 124.44 8.48437 124.687 7.97585C124.937 7.46733 125.284 7.07244 125.727 6.79119C126.173 6.50994 126.692 6.36932 127.282 6.36932C127.873 6.36932 128.39 6.50994 128.834 6.79119C129.28 7.07244 129.626 7.46733 129.873 7.97585C130.123 8.48437 130.248 9.07955 130.248 9.76136C130.248 10.4375 130.123 11.0284 129.873 11.5341C129.626 12.0398 129.28 12.4332 128.834 12.7145C128.39 12.9957 127.873 13.1364 127.282 13.1364ZM127.282 12.233C127.731 12.233 128.101 12.1179 128.39 11.8878C128.68 11.6577 128.895 11.3551 129.034 10.9801C129.173 10.6051 129.243 10.1989 129.243 9.76136C129.243 9.32386 129.173 8.91619 129.034 8.53835C128.895 8.16051 128.68 7.85511 128.39 7.62216C128.101 7.3892 127.731 7.27273 127.282 7.27273C126.834 7.27273 126.464 7.3892 126.174 7.62216C125.885 7.85511 125.67 8.16051 125.531 8.53835C125.392 8.91619 125.322 9.32386 125.322 9.76136C125.322 10.1989 125.392 10.6051 125.531 10.9801C125.67 11.3551 125.885 11.6577 126.174 11.8878C126.464 12.1179 126.834 12.233 127.282 12.233ZM134.306 15.5909C133.82 15.5909 133.402 15.5284 133.053 15.4034C132.703 15.2812 132.412 15.1193 132.179 14.9176C131.949 14.7188 131.766 14.5057 131.629 14.2784L132.431 13.7159C132.521 13.8352 132.637 13.9716 132.776 14.125C132.915 14.2812 133.105 14.4162 133.347 14.5298C133.591 14.6463 133.911 14.7045 134.306 14.7045C134.834 14.7045 135.27 14.5767 135.614 14.321C135.958 14.0653 136.129 13.6648 136.129 13.1193V11.7898H136.044C135.97 11.9091 135.865 12.0568 135.729 12.233C135.595 12.4062 135.402 12.5611 135.149 12.6974C134.899 12.831 134.561 12.8977 134.135 12.8977C133.607 12.8977 133.132 12.7727 132.712 12.5227C132.294 12.2727 131.963 11.9091 131.719 11.4318C131.477 10.9545 131.357 10.375 131.357 9.69318C131.357 9.02273 131.475 8.43892 131.71 7.94176C131.946 7.44176 132.274 7.0554 132.695 6.78267C133.115 6.5071 133.601 6.36932 134.152 6.36932C134.578 6.36932 134.916 6.44034 135.166 6.58239C135.419 6.72159 135.612 6.88068 135.746 7.05966C135.882 7.2358 135.987 7.38068 136.061 7.49432H136.164V6.45455H137.135V13.1875C137.135 13.75 137.007 14.2074 136.752 14.5597C136.499 14.9148 136.158 15.1747 135.729 15.3395C135.303 15.5071 134.828 15.5909 134.306 15.5909ZM134.271 11.9943C134.675 11.9943 135.016 11.902 135.294 11.7173C135.573 11.5327 135.784 11.267 135.929 10.9205C136.074 10.5739 136.146 10.1591 136.146 9.67614C136.146 9.20455 136.075 8.78835 135.933 8.42756C135.791 8.06676 135.581 7.78409 135.303 7.57955C135.024 7.375 134.681 7.27273 134.271 7.27273C133.845 7.27273 133.49 7.38068 133.206 7.59659C132.925 7.8125 132.713 8.10227 132.571 8.46591C132.432 8.82955 132.362 9.23295 132.362 9.67614C132.362 10.1307 132.433 10.5327 132.575 10.8821C132.72 11.2287 132.933 11.5014 133.215 11.7003C133.499 11.8963 133.851 11.9943 134.271 11.9943ZM138.856 13V6.45455H139.862V13H138.856ZM139.367 5.36364C139.171 5.36364 139.002 5.29688 138.86 5.16335C138.721 5.02983 138.651 4.86932 138.651 4.68182C138.651 4.49432 138.721 4.33381 138.86 4.20028C139.002 4.06676 139.171 4 139.367 4C139.563 4 139.731 4.06676 139.87 4.20028C140.012 4.33381 140.083 4.49432 140.083 4.68182C140.083 4.86932 140.012 5.02983 139.87 5.16335C139.731 5.29688 139.563 5.36364 139.367 5.36364ZM142.589 9.0625V13H141.584V6.45455H142.555V7.47727H142.64C142.794 7.14489 143.027 6.87784 143.339 6.67614C143.652 6.47159 144.055 6.36932 144.55 6.36932C144.993 6.36932 145.381 6.46023 145.713 6.64205C146.045 6.82102 146.304 7.09375 146.488 7.46023C146.673 7.82386 146.765 8.28409 146.765 8.84091V13H145.76V8.90909C145.76 8.39489 145.626 7.99432 145.359 7.70739C145.092 7.41761 144.726 7.27273 144.26 7.27273C143.939 7.27273 143.652 7.34233 143.399 7.48153C143.149 7.62074 142.952 7.82386 142.807 8.09091C142.662 8.35795 142.589 8.68182 142.589 9.0625ZM153.221 13L151.227 6.45455H152.284L153.698 11.4659H153.767L155.164 6.45455H156.238L157.619 11.4489H157.687L159.102 6.45455H160.159L158.164 13H157.176L155.744 7.97159H155.642L154.21 13H153.221ZM161.368 13V6.45455H162.374V13H161.368ZM161.88 5.36364C161.684 5.36364 161.514 5.29688 161.372 5.16335C161.233 5.02983 161.164 4.86932 161.164 4.68182C161.164 4.49432 161.233 4.33381 161.372 4.20028C161.514 4.06676 161.684 4 161.88 4C162.076 4 162.243 4.06676 162.382 4.20028C162.524 4.33381 162.595 4.49432 162.595 4.68182C162.595 4.86932 162.524 5.02983 162.382 5.16335C162.243 5.29688 162.076 5.36364 161.88 5.36364ZM166.942 6.45455V7.30682H163.55V6.45455H166.942ZM164.539 4.88636H165.545V11.125C165.545 11.4091 165.586 11.6222 165.668 11.7642C165.754 11.9034 165.861 11.9972 165.992 12.0455C166.126 12.0909 166.266 12.1136 166.414 12.1136C166.525 12.1136 166.616 12.108 166.687 12.0966C166.758 12.0824 166.815 12.071 166.857 12.0625L167.062 12.9659C166.994 12.9915 166.898 13.017 166.776 13.0426C166.654 13.071 166.499 13.0852 166.312 13.0852C166.028 13.0852 165.749 13.0241 165.477 12.902C165.207 12.7798 164.982 12.5938 164.803 12.3438C164.627 12.0938 164.539 11.7784 164.539 11.3977V4.88636ZM169.482 9.0625V13H168.476V4.27273H169.482V7.47727H169.567C169.72 7.1392 169.95 6.87074 170.257 6.67188C170.567 6.47017 170.979 6.36932 171.493 6.36932C171.939 6.36932 172.33 6.45881 172.665 6.63778C173 6.81392 173.26 7.08523 173.445 7.4517C173.632 7.81534 173.726 8.27841 173.726 8.84091V13H172.72V8.90909C172.72 8.3892 172.585 7.98722 172.315 7.70312C172.048 7.41619 171.678 7.27273 171.203 7.27273C170.874 7.27273 170.578 7.34233 170.317 7.48153C170.058 7.62074 169.854 7.82386 169.703 8.09091C169.555 8.35795 169.482 8.68182 169.482 9.0625Z" fill="#6C7278"/>
<line x1="191.5" y1="8.5" x2="278.5" y2="8.50001" stroke="#EDF1F3" stroke-linecap="round"/>
</svg>
