<svg width="116" height="116" viewBox="0 0 116 116" fill="none" xmlns="http://www.w3.org/2000/svg">
<path d="M55.9137 44.0199C56.5833 43.7652 57.6271 43.8001 59.0454 44.1259L68.0421 46.1922C70.7506 46.8144 72.5763 47.8816 73.5193 49.3924C74.4622 50.9032 74.6662 52.8234 74.1311 55.1527C73.5961 57.4819 72.5675 59.153 71.045 60.1656C69.5373 61.1135 67.4285 61.2762 64.7199 60.654L55.7245 58.5876C54.3057 58.2617 53.3576 57.8053 52.8813 57.219C52.4695 56.6476 52.4268 55.6502 52.7538 54.2268L54.4928 46.6565C54.8346 45.1683 55.3086 44.2896 55.9137 44.0199Z" fill="#5F259E"/>
<path fill-rule="evenodd" clip-rule="evenodd" d="M58.0002 0.633179C89.6823 0.633179 115.366 26.3171 115.366 57.9999C115.366 89.6828 89.6823 115.367 58.0002 115.367C26.3181 115.367 0.634766 89.6828 0.634766 57.9999C0.634835 26.3172 26.3182 0.633262 58.0002 0.633179ZM49.5671 22.4332C46.6007 21.7519 43.984 22.2068 41.7176 23.7978C39.5159 25.4036 38.0757 27.8313 37.397 31.081C36.7035 34.3957 36.9726 37.216 38.2035 39.5423C39.5137 41.8187 41.652 43.2981 44.6185 43.9796L46.2622 44.3567L46.3226 46.313C42.8061 47.1399 39.6071 49.0949 36.7262 52.1793C33.845 55.2639 31.6168 60.2361 30.0414 67.0946L26.8976 80.7795C26.1247 84.144 26.4406 86.9072 27.8449 89.069C29.3138 91.2457 31.6286 92.6972 34.7886 93.4231L34.8852 93.4459C37.7871 94.1124 40.3091 93.7717 42.4516 92.4248C44.6586 91.0926 46.1482 88.7437 46.9211 85.3791L49.7079 73.248L63.0574 76.314C67.1202 77.2473 71.057 77.4031 74.8664 76.7796C78.6759 76.1561 82.046 74.3411 84.9768 71.336C87.9076 68.3308 90.0713 63.7869 91.4684 57.7047C93.4005 49.2933 92.749 42.6726 89.5134 37.8423C86.3571 32.962 81.5222 29.7729 75.0087 28.2767L49.5671 22.4332Z" fill="#5F259E"/>
</svg>
